#!OML:ASF I:\Actors\actors\Patient Classification 2\Patient 1\Session 1\actor1.ASF
:FULLY-SPECIFIED
:DEGREES
620
root -0.644711 18.7365 5.65559 2.67566 -3.03195 -4.68013
lowerback 7.29194 0.33914 0.955004
upperback 1.72197 0.53949 0.696823
thorax -2.30783 0.264091 0.13203
lowerneck -5.10204 -0.436762 0.615299
upperneck 16.2059 -0.855802 1.18083
head 5.73196 -0.300057 0.213349
rclavicle 9.0944e-015 -2.78299e-015
rhumerus 5.30918 19.3542 -38.5652
rradius 125.687
rwrist -17.7544
rhand 4.50839 -39.267
rfingers 7.12502
rthumb 29.901 -66.8721
lclavicle 9.0944e-015 -2.78299e-015
lhumerus -27.6772 -23.1784 85.2721
lradius 116.665
lwrist 15.4824
lhand -4.27892 -35.2988
lfingers 7.12502
lthumb 21.4861 -6.47047
rfemur 0 0 0
rtibia 0
rfoot 0 0
rtoes 0
lfemur -7.07265 -4.42265 -9.46351
ltibia 23.8
lfoot -23.2364 14.3722
ltoes -55.4468
621
root -0.644544 18.7354 5.66464 2.6283 -3.00201 -4.71126
lowerback 7.15914 0.327923 0.983107
upperback 1.64449 0.527136 0.750112
thorax -2.31413 0.257758 0.172834
lowerneck -5.44323 -0.344372 0.561831
upperneck 17.0278 -0.72414 1.08796
head 6.04857 -0.239393 0.200776
rclavicle 7.30534e-015 -1.35174e-014
rhumerus 5.61782 20.7663 -38.1178
rradius 125.478
rwrist -16.434
rhand 2.80005 -38.8269
rfingers 7.12502
rthumb 28.2695 -66.7139
lclavicle 7.30534e-015 -1.35174e-014
lhumerus -27.7994 -23.0767 85.4524
lradius 116.393
lwrist 15.4551
lhand -4.22262 -35.3949
lfingers 7.12502
lthumb 21.5402 -6.57269
rfemur 0 0 0
rtibia 0
rfoot 0 0
rtoes 0
lfemur -6.99992 -4.33744 -9.42655
ltibia 23.8044
lfoot -23.1983 14.2832
ltoes -55.5005
622
root -0.644934 18.7327 5.67295 2.54247 -3.02931 -4.76204
lowerback 7.06666 0.332115 1.01792
upperback 1.56638 0.536268 0.801771
thorax -2.34332 0.261986 0.205985
lowerneck -5.63218 -0.219384 0.662031
upperneck 17.74 -0.541619 0.882078
head 6.30544 -0.155308 0.131202
rclavicle -1.69464e-014 1.63003e-014
rhumerus 5.61778 22.1581 -37.9588
rradius 125.232
rwrist -14.6822
rhand 1.11176 -38.1147
rfingers 7.12502
rthumb 26.6548 -66.2581
lclavicle -1.69464e-014 1.63003e-014
lhumerus -27.9132 -22.998 85.6238
lradius 116.078
lwrist 15.45
lhand -4.16338 -35.4795
lfingers 7.12502
lthumb 21.5971 -6.66383
rfemur 0 0 0
rtibia 0
rfoot 0 0
rtoes 0
lfemur -6.87091 -4.34916 -9.38125
ltibia 23.8178
lfoot -23.2864 14.291
ltoes -55.4885
623
root -0.645253 18.7293 5.68288 2.43849 -3.07242 -4.77536
lowerback 6.95389 0.363452 1.01748
upperback 1.51263 0.577505 0.826116
thorax -2.33604 0.282533 0.228198
lowerneck -5.82509 -0.101582 0.90331
upperneck 18.3801 -0.365616 0.577023
head 6.54196 -0.0740305 0.00616847
rclavicle 5.76476e-015 6.75868e-015
rhumerus 5.47777 23.371 -37.9472
rradius 124.856
rwrist -12.3049
rhand -0.316691 -37.1789
rfingers 7.12502
rthumb 25.287 -65.5229
lclavicle 5.76476e-015 6.75868e-015
lhumerus -27.9431 -22.9831 85.7566
lradius 115.759
lwrist 15.5065
lhand -4.058 -35.5569
lfingers 7.12502
lthumb 21.6983 -6.75293
rfemur 0 0 0
rtibia 0
rfoot 0 0
rtoes 0
lfemur -6.71093 -4.39029 -9.38688
ltibia 23.8332
lfoot -23.3736 14.3104
ltoes -55.4755
624
root -0.645208 18.7267 5.69402 2.36396 -3.10875 -4.79663
lowerback 6.80448 0.400589 1.03604
upperback 1.45813 0.627164 0.848496
thorax -2.30886 0.307245 0.237352
lowerneck -6.12107 0.00464314 1.0223
upperneck 19.0729 -0.216557 0.421144
head 6.81623 -0.00238247 -0.0528473
rclavicle 1.07841e-014 1.98785e-015
rhumerus 5.28961 24.5452 -37.9257
rradius 124.459
rwrist -9.78422
rhand -1.65542 -36.1552
rfingers 7.12502
rthumb 24.0039 -64.6744
lclavicle 1.07841e-014 1.98785e-015
lhumerus -27.9596 -22.9896 85.8791
lradius 115.447
lwrist 15.6012
lhand -3.96077 -35.6201
lfingers 7.12502
lthumb 21.7916 -6.82695
rfemur 0 0 0
rtibia 0
rfoot 0 0
rtoes 0
lfemur -6.57607 -4.41108 -9.38425
ltibia 23.8416
lfoot -23.4492 14.3217
ltoes -55.467
